<?xml version="1.0" standalone="no"?>
<!DOCTYPE svg PUBLIC "-//W3C//DTD SVG 20010904//EN"
 "http://www.w3.org/TR/2001/REC-SVG-20010904/DTD/svg10.dtd">
<svg version="1.0" xmlns="http://www.w3.org/2000/svg"
 width="180.000000pt" height="180.000000pt" viewBox="0 0 180.000000 180.000000"
 preserveAspectRatio="xMidYMid meet">
<metadata>
Created by potrace 1.11, written by Peter Selinger 2001-2013
</metadata>
<g transform="translate(0.000000,180.000000) scale(0.100000,-0.100000)"
fill="#000000" stroke="none">
<path d="M0 1534 l0 -265 58 73 c114 143 313 307 464 384 58 29 62 26 9 -9
-111 -74 -224 -207 -284 -335 -21 -45 -56 -95 -101 -143 -38 -41 -86 -96 -108
-122 l-38 -49 0 -534 0 -534 900 0 900 0 0 515 0 516 -26 52 c-35 69 -87 141
-146 203 -34 35 -49 59 -51 81 -1 17 -4 29 -6 27 -2 -2 -15 14 -27 36 -58 102
-197 248 -301 318 -59 39 -66 47 -25 29 166 -73 355 -225 500 -402 36 -44 69
-84 74 -90 4 -5 8 109 8 253 l0 262 -331 0 -331 -1 82 -57 c110 -75 196 -162
270 -274 33 -50 60 -95 60 -100 0 -4 -33 14 -72 41 -137 91 -261 128 -458 138
-147 7 -302 -8 -434 -42 -104 -26 -172 -57 -263 -121 -35 -24 -63 -40 -63 -35
0 19 35 90 75 152 56 87 187 200 318 275 l42 24 -347 0 -348 0 0 -266z m1215
-486 c26 -65 26 -67 -60 -119 -44 -27 -86 -49 -92 -49 -7 0 -13 -4 -13 -10 0
-15 28 -12 55 6 23 15 24 15 20 -3 -2 -10 -6 -26 -10 -35 -9 -22 8 -24 25 -3
21 26 74 29 123 7 76 -34 133 -131 125 -213 -4 -42 5 -50 21 -21 9 14 10 12
10 -13 0 -97 -20 -288 -33 -313 -59 -114 -320 -242 -490 -242 -123 1 -288 81
-401 194 l-71 71 -27 215 c-15 118 -27 225 -27 237 0 12 23 57 50 99 28 42 50
81 50 87 0 5 7 4 16 -4 13 -10 17 -10 25 2 7 11 9 9 9 -8 0 -34 18 -28 37 12
9 19 20 35 23 35 3 0 55 -31 116 -70 114 -73 131 -80 140 -55 5 12 12 10 38
-10 18 -14 40 -25 50 -25 19 0 152 125 216 204 25 30 49 55 53 56 4 0 14 -15
22 -32z m-477 -79 c50 -53 92 -99 92 -102 0 -15 -23 -5 -92 42 -40 26 -89 56
-108 66 -19 10 -36 19 -38 20 -5 5 40 76 47 73 3 -2 48 -46 99 -99z m594 -79
c4 0 8 16 10 35 3 35 4 34 51 -50 l47 -86 -9 -62 c-5 -34 -9 -51 -10 -37 -2
34 -37 109 -64 138 -12 13 -34 30 -49 38 -29 15 -36 43 -21 81 6 15 10 11 23
-19 8 -21 18 -38 22 -38z m-76 35 c4 -14 4 -28 1 -31 -2 -3 -31 -4 -63 -2
l-59 3 45 27 c56 34 68 34 76 3z m-1159 -207 c-3 -8 -6 -5 -6 6 -1 11 2 17 5
13 3 -3 4 -12 1 -19z m1483 -149 c9 -32 8 -51 -5 -95 -8 -30 -18 -54 -20 -54
-3 0 -5 43 -5 95 0 101 12 122 30 54z m-1336 -114 c5 -39 4 -47 -6 -37 -7 7
-13 44 -15 85 -2 56 0 64 6 37 5 -19 11 -57 15 -85z m-147 53 c-3 -8 -6 -5 -6
6 -1 11 2 17 5 13 3 -3 4 -12 1 -19z"/>
<path d="M559 867 c-108 -57 -161 -204 -100 -279 26 -31 32 -21 19 29 -19 77
39 193 112 223 37 15 114 8 138 -13 14 -13 19 -13 30 -1 17 19 16 22 -20 44
-46 28 -122 27 -179 -3z"/>
<path d="M1161 833 l-24 -16 21 -8 c25 -9 31 -56 10 -77 -15 -15 -48 -16 -48
-2 0 6 -4 10 -10 10 -15 0 -12 -86 4 -124 28 -67 103 -96 155 -60 75 53 63
223 -21 274 -40 24 -56 25 -87 3z"/>
<path d="M597 829 c-16 -10 -16 -11 5 -28 19 -16 21 -22 11 -44 -8 -17 -21
-27 -40 -29 -20 -2 -29 -9 -31 -25 -5 -35 17 -100 44 -133 51 -60 142 -31 165
52 12 48 4 121 -18 159 -29 50 -94 72 -136 48z"/>
<path d="M890 475 c0 -8 5 -15 10 -15 6 0 10 7 10 15 0 8 -4 15 -10 15 -5 0
-10 -7 -10 -15z"/>
<path d="M833 273 c-14 -5 -18 -23 -5 -23 5 0 17 7 28 15 14 11 15 14 4 14 -8
0 -21 -3 -27 -6z"/>
<path d="M940 273 c0 -5 19 -14 43 -21 23 -7 48 -15 55 -18 6 -3 12 -1 12 5 0
12 -26 24 -77 36 -18 3 -33 3 -33 -2z"/>
</g>
</svg>
